<svg width="1440" height="720" viewBox="0 0 1440 720" fill="none" xmlns="http://www.w3.org/2000/svg">
<mask id="mask0_20_65" style="mask-type:alpha" maskUnits="userSpaceOnUse" x="0" y="0" width="1440" height="720">
<path d="M0 0H1440V720H0V0Z" fill="url(#paint0_linear_20_65)"/>
</mask>
<g mask="url(#mask0_20_65)">
<path d="M0 0H1440V720H0V0Z" fill="url(#paint1_linear_20_65)"/>
<path opacity="0.75" d="M-141.775 -366.775C48.8006 -557.351 358.102 -557.034 549.068 -366.068C740.034 -175.102 740.351 134.199 549.775 324.775C359.199 515.351 49.8982 515.034 -141.068 324.068C-332.034 133.102 -332.351 -176.199 -141.775 -366.775Z" fill="url(#paint2_linear_20_65)"/>
<ellipse opacity="0.75" rx="489" ry="488" transform="matrix(0.707107 -0.707107 -0.707107 -0.707107 1181 864)" fill="url(#paint3_linear_20_65)"/>
</g>
<defs>
<linearGradient id="paint0_linear_20_65" x1="838" y1="720" x2="838" y2="0" gradientUnits="userSpaceOnUse">
<stop stop-color="#A4C661"/>
<stop offset="1" stop-color="#F0EC93"/>
</linearGradient>
<linearGradient id="paint1_linear_20_65" x1="838" y1="720" x2="838" y2="0" gradientUnits="userSpaceOnUse">
<stop stop-color="#A4C661"/>
<stop offset="1" stop-color="#F0EC93"/>
</linearGradient>
<linearGradient id="paint2_linear_20_65" x1="207.388" y1="661.779" x2="892.151" y2="-22.9848" gradientUnits="userSpaceOnUse">
<stop stop-color="#F0EA90"/>
<stop offset="0.999399" stop-color="#63A736"/>
</linearGradient>
<linearGradient id="paint3_linear_20_65" x1="3.80694" y1="7.59834" x2="3.80694" y2="976" gradientUnits="userSpaceOnUse">
<stop stop-color="#F0EA90"/>
<stop offset="0.999399" stop-color="#63A736"/>
</linearGradient>
</defs>
</svg>
