<svg width="1440" height="720" viewBox="0 0 1440 720" fill="none" xmlns="http://www.w3.org/2000/svg">
<mask id="mask0_21_75" style="mask-type:alpha" maskUnits="userSpaceOnUse" x="0" y="0" width="1440" height="720">
<path d="M0 0H1440V720H0V0Z" fill="url(#paint0_linear_21_75)"/>
</mask>
<g mask="url(#mask0_21_75)">
<path d="M0 0H1440V720H0V0Z" fill="#68D09B"/>
<path opacity="0.75" d="M-177.699 284.658C-346.164 74.2824 -311.84 -233.108 -101.033 -401.919C109.774 -570.729 417.234 -537.033 585.699 -326.658C754.164 -116.282 719.839 191.108 509.033 359.919C298.226 528.729 -9.23418 495.033 -177.699 284.658Z" fill="url(#paint1_linear_21_75)"/>
<path opacity="0.75" d="M1656.35 618.062C1759.85 866.913 1641.6 1152.72 1392.24 1256.43C1142.88 1360.14 856.832 1242.48 753.335 993.625C649.839 744.774 768.085 458.968 1017.45 355.259C1266.81 251.55 1552.85 369.211 1656.35 618.062Z" fill="url(#paint2_linear_21_75)"/>
</g>
<defs>
<linearGradient id="paint0_linear_21_75" x1="720" y1="0" x2="720" y2="720" gradientUnits="userSpaceOnUse">
<stop stop-color="#DDE283"/>
<stop offset="1" stop-color="#85B74C"/>
</linearGradient>
<linearGradient id="paint1_linear_21_75" x1="509.033" y1="359.919" x2="-101.033" y2="-401.919" gradientUnits="userSpaceOnUse">
<stop stop-color="white" stop-opacity="0.06"/>
<stop offset="1" stop-color="#EFE98C"/>
</linearGradient>
<linearGradient id="paint2_linear_21_75" x1="1017.45" y1="355.259" x2="1392.24" y2="1256.43" gradientUnits="userSpaceOnUse">
<stop stop-color="white" stop-opacity="0.06"/>
<stop offset="1" stop-color="#EFE98C"/>
</linearGradient>
</defs>
</svg>
